<?xml version="1.0" encoding="utf-8"?>
<!-- Generator: Adobe Illustrator 16.0.0, SVG Export Plug-In . SVG Version: 6.00 Build 0)  -->
<!DOCTYPE svg PUBLIC "-//W3C//DTD SVG 1.1//EN" "http://www.w3.org/Graphics/SVG/1.1/DTD/svg11.dtd">
<svg version="1.1" id="Calque_1" xmlns="http://www.w3.org/2000/svg" xmlns:xlink="http://www.w3.org/1999/xlink" x="0px" y="0px"
	 width="146.22px" height="33.9px" viewBox="0 0 146.22 33.9" enable-background="new 0 0 146.22 33.9" xml:space="preserve">
<g>
	<g>
		<g>
			<path fill="#44499E" stroke="#44499E" stroke-width="0.5" stroke-miterlimit="10" d="M18.479,23.43
				c-0.683,3.402-1.796,5.95-3.339,7.645c-1.543,1.694-3.51,2.54-5.9,2.54c-1.313,0-2.489-0.333-3.526-1.004
				c-1.038-0.671-1.826-1.575-2.364-2.718l-0.906,3.309h-1.97L6.621,2.47h2.285L6.423,14.782l0.099,0.079
				c0.774-1.064,1.701-1.891,2.778-2.482c1.077-0.591,2.271-0.886,3.585-0.886c2.233,0,3.903,1.093,5.014,3.28
				c1.11,2.187,1.33,4.934,0.66,8.245L18.479,23.43z M16.253,23.019c0.564-2.876,0.489-5.18-0.227-6.915
				c-0.716-1.734-2.045-2.602-3.989-2.602c-1.366,0-2.571,0.438-3.615,1.316s-1.934,1.988-2.669,3.333l-1.931,9.695
				c0.289,1.148,0.89,2.063,1.803,2.741c0.912,0.678,2.104,1.02,3.575,1.02c1.759,0,3.234-0.729,4.422-2.188
				c1.188-1.456,2.039-3.453,2.551-5.985L16.253,23.019z"/>
			<path fill="#44499E" stroke="#44499E" stroke-width="0.5" stroke-miterlimit="10" d="M27.72,33.614
				c-2.403,0-4.294-0.99-5.674-2.973c-1.378-1.985-1.825-4.473-1.339-7.467l0.178-1.084c0.499-3.164,1.716-5.723,3.654-7.673
				c1.938-1.951,4.075-2.926,6.413-2.926c2.351,0,4.11,0.835,5.279,2.506c1.168,1.671,1.537,3.875,1.103,6.611l-0.315,2.014H23.071
				l-0.079,0.569c-0.394,2.483-0.135,4.507,0.778,6.068c0.912,1.563,2.334,2.346,4.265,2.346c1.3,0,2.478-0.207,3.536-0.616
				c1.057-0.409,1.986-0.986,2.788-1.729l0.709,1.616c-0.88,0.841-1.931,1.507-3.152,1.998
				C30.695,33.368,29.296,33.614,27.72,33.614z M30.636,13.501c-1.537,0-2.965,0.669-4.285,2.009
				c-1.32,1.339-2.236,3.001-2.749,4.985l0.04,0.117h11.426l0.099-0.591c0.302-1.931,0.06-3.5-0.729-4.708
				C33.649,14.106,32.382,13.501,30.636,13.501z"/>
		</g>
	</g>
	<g>
		<g>
			<path fill="#E65367" d="M58.109,5.204h-9.438v28.198h-6.689V5.204h-9.392V0.049h25.518V5.204z"/>
			<path fill="#E65367" d="M78.071,24.537h0.137l3.229-15.92h6.276l-6.299,24.785h-5.59l-4.604-14.752h-0.138l-4.604,14.752h-5.566
				L54.614,8.617h6.276l3.276,15.875h0.138L68.93,8.617h4.467L78.071,24.537z"/>
			<path fill="#E65367" d="M88.129,20.78c0-3.695,1.031-6.724,3.092-9.083c2.063-2.36,4.917-3.54,8.568-3.54
				c3.665,0,6.534,1.176,8.612,3.528c2.077,2.352,3.116,5.383,3.116,9.094v0.481c0,3.726-1.035,6.761-3.104,9.104
				c-2.07,2.345-4.93,3.517-8.579,3.517c-3.665,0-6.533-1.172-8.602-3.517c-2.068-2.344-3.104-5.379-3.104-9.104V20.78z
				 M94.794,21.25c0,2.258,0.397,4.066,1.191,5.432c0.793,1.364,2.076,2.047,3.849,2.047c1.725,0,2.99-0.687,3.791-2.057
				c0.802-1.373,1.203-3.18,1.203-5.422v-0.481c0-2.195-0.405-3.987-1.214-5.375c-0.81-1.388-2.085-2.082-3.825-2.082
				c-1.728,0-2.991,0.698-3.792,2.093c-0.802,1.395-1.203,3.183-1.203,5.363V21.25z"/>
		</g>
	</g>
	<path fill="#E65367" d="M132.674,8.255c-2.506-1.976-6.142-1.546-8.118,0.96c-0.137,0.174-0.273,0.401-0.407,0.669
		c-0.004-0.301-0.029-0.564-0.074-0.781c-0.675-3.12-3.753-5.102-6.872-4.427c-3.119,0.675-5.101,3.75-4.428,6.87
		c0.677,3.12,7.911,13.291,7.911,13.291s0.004-0.012,0.008-0.027c-0.002,0.018-0.004,0.027-0.004,0.027s10.968-5.96,12.945-8.467
		C135.611,13.864,135.183,10.23,132.674,8.255z"/>
	<path fill="#E65367" d="M144.984,2.173c-1.411-1.113-3.46-0.871-4.573,0.541c-0.076,0.098-0.154,0.226-0.23,0.377
		c-0.002-0.169-0.016-0.317-0.041-0.44c-0.38-1.758-2.113-2.874-3.871-2.494c-1.757,0.38-2.872,2.112-2.494,3.87
		c0.381,1.757,4.457,7.487,4.457,7.487s0.002-0.006,0.004-0.015c0,0.01-0.002,0.015-0.002,0.015s6.178-3.357,7.293-4.769
		C146.638,5.333,146.398,3.287,144.984,2.173z"/>
</g>
</svg>
